<svg width="482.95" height="79.2887106686283" viewBox="0 0 374.5483870967742 61.4917873401336" class="looka-1j8o68f"><defs id="SvgjsDefs1264"></defs><g id="SvgjsG1265" featurekey="nRdZyp-0" transform="matrix(0.51243156116778,0,0,0.51243156116778,-10.257803987564508,-7.6864734175167)" fill="#111111"><g xmlns="http://www.w3.org/2000/svg"><path d="M83.7,71.1c0.2,0,0.3,0,0.5-0.1l1.7-1c0.5-0.3,0.6-0.9,0.4-1.4c-0.3-0.5-0.9-0.6-1.4-0.4l-1.7,1     c-0.5,0.3-0.6,0.9-0.4,1.4C83,70.9,83.3,71.1,83.7,71.1z"></path><path d="M92.4,66.1c0.2,0,0.3,0,0.5-0.1l1.7-1c0.5-0.3,0.6-0.9,0.4-1.4c-0.3-0.5-0.9-0.6-1.4-0.4l-1.7,1     c-0.5,0.3-0.6,0.9-0.4,1.4C91.7,65.9,92,66.1,92.4,66.1z"></path><path d="M66.4,69l-1.7-1c-0.5-0.3-1.1-0.1-1.4,0.4c-0.3,0.5-0.1,1.1,0.4,1.4l1.7,1c0.2,0.1,0.3,0.1,0.5,0.1     c0.3,0,0.7-0.2,0.9-0.5C67,69.9,66.8,69.3,66.4,69z"></path><path d="M57.6,64.1l-1.7-1c-0.5-0.3-1.1-0.1-1.4,0.4c-0.3,0.5-0.1,1.1,0.4,1.4l1.7,1c0.2,0.1,0.3,0.1,0.5,0.1     c0.3,0,0.7-0.2,0.9-0.5C58.3,65,58.1,64.4,57.6,64.1z"></path><path d="M75,94c-0.6,0-1,0.4-1,1v2c0,0.6,0.4,1,1,1s1-0.4,1-1v-2C76,94.4,75.6,94,75,94z"></path><path d="M75,84c-0.6,0-1,0.4-1,1v2c0,0.6,0.4,1,1,1s1-0.4,1-1v-2C76,84.4,75.6,84,75,84z"></path><path d="M75,65.9c0.6,0,1-0.4,1-1v-2c0-0.6-0.4-1-1-1s-1,0.4-1,1v2C74,65.4,74.4,65.9,75,65.9z"></path><path d="M75,55.9c0.6,0,1-0.4,1-1v-2c0-0.6-0.4-1-1-1s-1,0.4-1,1v2C74,55.4,74.4,55.9,75,55.9z"></path><path d="M94.7,84.9l-1.7-1c-0.5-0.3-1.1-0.1-1.4,0.4c-0.3,0.5-0.1,1.1,0.4,1.4l1.7,1c0.2,0.1,0.3,0.1,0.5,0.1     c0.3,0,0.7-0.2,0.9-0.5C95.3,85.8,95.2,85.2,94.7,84.9z"></path><path d="M86,80l-1.7-1c-0.5-0.3-1.1-0.1-1.4,0.4s-0.1,1.1,0.4,1.4l1.7,1c0.2,0.1,0.3,0.1,0.5,0.1c0.3,0,0.7-0.2,0.9-0.5     C86.6,80.9,86.4,80.3,86,80z"></path><path d="M56.7,84.2l-1.7,1c-0.5,0.3-0.7,0.9-0.4,1.4c0.2,0.3,0.5,0.5,0.9,0.5c0.2,0,0.3,0,0.5-0.1l1.7-1c0.5-0.3,0.7-0.9,0.4-1.4     C57.8,84.1,57.1,83.9,56.7,84.2z"></path><path d="M65.4,79.3l-1.7,1c-0.5,0.3-0.7,0.9-0.4,1.4c0.2,0.3,0.5,0.5,0.9,0.5c0.2,0,0.3,0,0.5-0.1l1.7-1c0.5-0.3,0.7-0.9,0.4-1.4     C66.5,79.2,65.9,79,65.4,79.3z"></path><path d="M121.1,75c3.9-5.2,6.7-10.4,8-15.3c1.5-5.7,1.1-10.6-1.3-14.7c-4.6-7.8-15.8-10.8-29.8-9.2C92.4,23.1,84.2,15,75,15     c-9.2,0-17.4,8.1-23,20.8c-14-1.6-25.2,1.4-29.8,9.2c-2.4,4.1-2.8,9-1.3,14.7c1.3,5,4.1,10.2,8,15.3c-3.9,5.2-6.7,10.4-8,15.3     c-1.5,5.7-1.1,10.6,1.3,14.7c3.8,6.5,12.1,9.6,22.8,9.6c2.3,0,4.6-0.2,7.1-0.4c5.6,12.7,13.8,20.8,23,20.8     c9.2,0,17.4-8.1,23-20.8c2.4,0.3,4.8,0.4,7.1,0.4c10.7,0,19-3.2,22.8-9.6c2.4-4.1,2.8-9,1.3-14.7C127.8,85.4,125.1,80.2,121.1,75     z M105.2,37.3c9.9,0,17.5,2.9,20.9,8.8c2.1,3.6,2.5,8,1.1,13.1c-1.2,4.5-3.8,9.4-7.4,14.2c-3.2-4-7.2-8-11.7-11.8     c0.4-0.8,0.7-1.7,0.7-2.6c0-3-2.5-5.5-5.5-5.5c-1.1-5.7-2.7-11-4.6-15.8C101,37.4,103.1,37.3,105.2,37.3z M106.8,90.9     c0,1.9-1.6,3.5-3.5,3.5s-3.5-1.6-3.5-3.5s1.6-3.5,3.5-3.5S106.8,89,106.8,90.9z M103,85.4c-2.9,0.2-5.2,2.6-5.2,5.5     c0,0.9,0.2,1.8,0.6,2.5c-2.9,2-6,4-9.2,5.8c-3.2,1.8-6.4,3.4-9.6,4.9c-1-1.5-2.7-2.5-4.6-2.5c-1.9,0-3.6,1-4.6,2.5     c-3.2-1.5-6.4-3.1-9.6-4.9c-3.2-1.8-6.3-3.7-9.2-5.8c0.4-0.8,0.6-1.6,0.6-2.5c0-2.9-2.3-5.3-5.2-5.5c-0.3-3.4-0.5-6.8-0.5-10.4     c0-3.5,0.2-7,0.5-10.4c2.9-0.2,5.2-2.6,5.2-5.5c0-0.9-0.2-1.8-0.6-2.5c2.9-2,6-4,9.2-5.8c3.2-1.8,6.4-3.4,9.6-4.9     c1,1.5,2.7,2.5,4.6,2.5c1.9,0,3.6-1,4.6-2.5c3.2,1.5,6.4,3.1,9.6,4.9c3.2,1.8,6.2,3.7,9.1,5.7c-0.3,0.7-0.5,1.5-0.5,2.4     c0,2.9,2.3,5.3,5.2,5.5c0.3,3.4,0.5,7,0.5,10.6C103.4,78.5,103.3,82,103,85.4z M78.5,107.1c0,1.9-1.6,3.5-3.5,3.5     s-3.5-1.6-3.5-3.5s1.6-3.5,3.5-3.5S78.5,105.2,78.5,107.1z M46.7,87.4c1.9,0,3.5,1.6,3.5,3.5s-1.6,3.5-3.5,3.5     c-1.9,0-3.5-1.6-3.5-3.5S44.7,87.4,46.7,87.4z M43.2,59.1c0-1.9,1.6-3.5,3.5-3.5c1.9,0,3.5,1.6,3.5,3.5c0,1.9-1.6,3.5-3.5,3.5     C44.7,62.6,43.2,61,43.2,59.1z M71.5,42.9c0-1.9,1.6-3.5,3.5-3.5s3.5,1.6,3.5,3.5c0,1.9-1.6,3.5-3.5,3.5S71.5,44.8,71.5,42.9z      M103.3,62.5c-1.9,0-3.5-1.6-3.5-3.5s1.6-3.5,3.5-3.5s3.5,1.6,3.5,3.5S105.3,62.5,103.3,62.5z M99.5,54.9c-2.9-2-6.1-4-9.3-5.8     c-3.3-1.9-6.5-3.5-9.8-5c0.1-0.4,0.1-0.8,0.1-1.2c0-0.3,0-0.6-0.1-1c5.7-2,11.2-3.3,16.4-4c1.9,4.7,3.5,10.1,4.6,15.9     C100.7,54,100.1,54.4,99.5,54.9z M69.6,44.1c-3.3,1.5-6.5,3.1-9.8,5c-3.3,1.9-6.4,3.8-9.4,5.9c-0.5-0.5-1.2-0.9-1.8-1.1     c1.1-5.9,2.7-11.3,4.6-16c5.1,0.7,10.7,2.1,16.4,4c-0.1,0.3-0.1,0.6-0.1,1C69.5,43.3,69.5,43.7,69.6,44.1z M43,63.2     c0.6,0.5,1.3,0.9,2.1,1.2c-0.3,3.4-0.5,7-0.5,10.6c0,3.6,0.2,7.2,0.5,10.6c-0.8,0.2-1.5,0.6-2.1,1.2C38.6,83,34.7,79,31.5,75     C34.7,71,38.6,67,43,63.2z M50.4,95c3,2.1,6.1,4,9.4,5.9c3.3,1.9,6.5,3.5,9.8,5c-0.1,0.4-0.1,0.8-0.1,1.2c0,0.3,0,0.6,0.1,1     c-5.7,2-11.2,3.3-16.4,4c-1.9-4.8-3.5-10.2-4.6-16C49.2,95.9,49.9,95.5,50.4,95z M80.4,105.9c3.3-1.5,6.5-3.1,9.8-5     c3.3-1.9,6.4-3.8,9.4-5.9c0.5,0.5,1.2,0.9,1.8,1.1c-1.1,5.9-2.7,11.3-4.6,16c-5.1-0.7-10.7-2.1-16.4-4c0.1-0.3,0.1-0.6,0.1-1     C80.5,106.7,80.5,106.3,80.4,105.9z M107,86.8c-0.6-0.5-1.3-0.9-2.1-1.2c0.3-3.4,0.5-7,0.5-10.6c0-3.7-0.2-7.3-0.5-10.8     c0.7-0.2,1.4-0.6,2-1.1c4.5,3.8,8.4,7.8,11.6,11.9C115.3,79,111.4,83,107,86.8z M75,17c8.3,0,15.8,7.4,21,19.1     c-5.1,0.7-10.6,2.1-16.3,4c-1-1.6-2.7-2.7-4.8-2.7c-2,0-3.8,1.1-4.8,2.7c-5.6-1.9-11.1-3.3-16.3-4C59.2,24.4,66.7,17,75,17z      M22.8,59.1c-1.4-5.1-1-9.5,1.1-13.1c3.5-5.9,11.1-8.8,20.9-8.8c2,0,4.2,0.1,6.4,0.4c-1.9,4.8-3.5,10.1-4.6,15.9     c-3,0-5.4,2.5-5.4,5.5c0,0.9,0.2,1.7,0.6,2.5c-4.5,3.8-8.4,7.7-11.6,11.7C26.5,68.5,24,63.7,22.8,59.1z M23.9,104     c-2.1-3.6-2.5-8-1.1-13.1c1.2-4.5,3.8-9.4,7.4-14.2c3.2,4,7.1,8,11.6,11.7c-0.4,0.8-0.6,1.6-0.6,2.5c0,3,2.4,5.5,5.4,5.5     c1.1,5.8,2.7,11.2,4.6,15.9C38.3,113.8,28.1,111.1,23.9,104z M75,133c-8.3,0-15.8-7.4-21-19.1c5.1-0.7,10.6-2.1,16.3-4     c1,1.6,2.7,2.7,4.8,2.7c2,0,3.8-1.1,4.8-2.7c5.6,1.9,11.1,3.3,16.3,4C90.8,125.6,83.3,133,75,133z M126.1,104     c-4.2,7.1-14.4,9.8-27.3,8.4c1.9-4.8,3.5-10.1,4.6-15.9c3-0.1,5.4-2.5,5.4-5.5c0-0.9-0.2-1.7-0.6-2.5c4.5-3.8,8.4-7.7,11.6-11.7     c3.6,4.8,6.2,9.7,7.4,14.2C128.6,96,128.2,100.4,126.1,104z"></path><path d="M75,69.5c-3.1,0-5.5,2.5-5.5,5.5s2.5,5.5,5.5,5.5s5.5-2.5,5.5-5.5S78.1,69.5,75,69.5z M75,78.5c-1.9,0-3.5-1.6-3.5-3.5     s1.6-3.5,3.5-3.5s3.5,1.6,3.5,3.5S76.9,78.5,75,78.5z"></path></g></g><g id="SvgjsG1266" featurekey="Q4qmbg-0" transform="matrix(2.4134951953717008,0,0,2.4134951953717008,79.841523411032,-4.357095124100502)" fill="#111111"><path d="M3.48 13.24 c0 1.18 5 0.62 5 3.74 c0 2.04 -1.8 3.18 -4.04 3.18 c-1.42 0 -2.84 -0.7 -3.96 -1.82 l1.94 -1.94 c0.56 0.68 1.36 1.2 2.02 1.26 s1.22 -0.22 1.32 -0.52 c0.24 -0.76 -1.14 -0.8 -1.56 -0.92 c-1.58 -0.48 -3.42 -1.14 -3.42 -3.1 c0 -2.34 2.44 -3.14 3.66 -3.14 c1.4 0 2.82 0.64 3.96 1.8 l-1.92 1.92 c-0.52 -0.68 -1.42 -1.22 -2.04 -1.22 c-0.32 0 -0.96 0.12 -0.96 0.76 z M11.987708333333332 13.04 l-2.2 -1.26 c1.1 -1.24 2.58 -1.82 4.12 -1.82 c2.96 0 4.16 1.62 4.16 3.14 l0 6.9 l-2.96 0 l0 -0.7 c-0.46 0.48 -1.28 0.84 -2.2 0.84 c-2.7 0 -3.74 -1.2 -3.74 -3.04 c0 -2.08 1.68 -3.48 4.4 -3.48 l1.54 0 c0 -0.74 -0.56 -1.22 -1.4 -1.22 c-0.86 0 -1.28 0.16 -1.72 0.64 z M15.107708333333331 16.740000000000002 l0 -0.88 l-1.74 0 c-0.78 0 -1.36 0.54 -1.24 1.3 c0.08 0.54 0.56 0.76 1.24 0.76 c1.3 0 1.74 -0.74 1.74 -1.18 z M29.015416666666663 14.36 l0 5.64 l-2.96 0 l0 -5.64 c0 -1.5 -0.4 -2.16 -1.56 -2.16 c-1.2 0 -1.9 0.66 -1.9 2.16 l0 5.64 l-2.96 0 l0 -9.88 l2.96 0 l0 0.94 c0.76 -0.74 1.8 -1.08 2.66 -1.08 c2.78 0 3.76 1.34 3.76 4.38 z M34.183125 7.279999999999999 c0 0.84 -0.68 1.5 -1.56 1.5 s-1.58 -0.66 -1.58 -1.5 c0 -0.82 0.7 -1.46 1.58 -1.46 s1.56 0.64 1.56 1.46 z M28.563124999999996 23.06 l0 -2.68 c0.48 0.32 0.64 0.48 1.46 0.48 c0.34 0 1.08 -0.2 1.08 -1.58 l0 -9.16 l2.96 0 l0 9.16 c0 3.2 -1.1 4.38 -2.98 4.38 c-1.08 0 -1.16 0 -2.52 -0.6 z M38.150833333333324 13.04 l-2.2 -1.26 c1.1 -1.24 2.58 -1.82 4.12 -1.82 c2.96 0 4.16 1.62 4.16 3.14 l0 6.9 l-2.96 0 l0 -0.7 c-0.46 0.48 -1.28 0.84 -2.2 0.84 c-2.7 0 -3.74 -1.2 -3.74 -3.04 c0 -2.08 1.68 -3.48 4.4 -3.48 l1.54 0 c0 -0.74 -0.56 -1.22 -1.4 -1.22 c-0.86 0 -1.28 0.16 -1.72 0.64 z M41.27083333333333 16.740000000000002 l0 -0.88 l-1.74 0 c-0.78 0 -1.36 0.54 -1.24 1.3 c0.08 0.54 0.56 0.76 1.24 0.76 c1.3 0 1.74 -0.74 1.74 -1.18 z M48.89854166666665 10.12 l0 9.88 l-2.96 0 l0 -9.88 l2.96 0 z M48.97854166666665 7.279999999999999 c0 0.84 -0.68 1.5 -1.58 1.5 c-0.86 0 -1.56 -0.66 -1.56 -1.5 c0 -0.82 0.7 -1.46 1.56 -1.46 c0.9 0 1.58 0.64 1.58 1.46 z M57.10624999999998 20 l-3.2 -4.06 c-0.08 0.08 -0.22 0.18 -0.34 0.28 l0 3.78 l-2.98 0 l0 -14.52 l2.98 0 l0 7.12 l2.84 -2.48 l4.42 0 l-4.78 4 c1.46 1.8 3.38 4.14 4.78 5.88 l-3.72 0 z M63.95395833333331 13.04 l-2.2 -1.26 c1.1 -1.24 2.58 -1.82 4.12 -1.82 c2.96 0 4.16 1.62 4.16 3.14 l0 6.9 l-2.96 0 l0 -0.7 c-0.46 0.48 -1.28 0.84 -2.2 0.84 c-2.7 0 -3.74 -1.2 -3.74 -3.04 c0 -2.08 1.68 -3.48 4.4 -3.48 l1.54 0 c0 -0.74 -0.56 -1.22 -1.4 -1.22 c-0.86 0 -1.28 0.16 -1.72 0.64 z M67.07395833333331 16.740000000000002 l0 -0.88 l-1.74 0 c-0.78 0 -1.36 0.54 -1.24 1.3 c0.08 0.54 0.56 0.76 1.24 0.76 c1.3 0 1.74 -0.74 1.74 -1.18 z M77.02166666666665 9.98 c2.9 0 4.82 2.18 4.82 5.1 s-2.12 5.08 -5.02 5.08 c-0.64 0 -1.72 -0.36 -2.04 -0.82 l0 0.66 l-2.96 0 l0 -14.52 l2.96 0 l0 5.34 c0.34 -0.5 1.62 -0.84 2.24 -0.84 z M76.62166666666664 17.92 c1.24 0 2.26 -1.28 2.26 -2.84 c0 -1.58 -1.02 -2.86 -2.26 -2.86 c-1.36 0 -2.24 1.54 -2.24 2.86 s0.9 2.84 2.24 2.84 z M86.20937499999998 10.12 l0 9.88 l-2.96 0 l0 -9.88 l2.96 0 z M86.28937499999998 7.279999999999999 c0 0.84 -0.68 1.5 -1.58 1.5 c-0.86 0 -1.56 -0.66 -1.56 -1.5 c0 -0.82 0.7 -1.46 1.56 -1.46 c0.9 0 1.58 0.64 1.58 1.46 z M90.6970833333333 5.119999999999999 l0 14.88 l-2.98 0 l0 -14.88 l2.98 0 z M94.76479166666664 13.04 l-2.2 -1.26 c1.1 -1.24 2.58 -1.82 4.12 -1.82 c2.96 0 4.16 1.62 4.16 3.14 l0 6.9 l-2.96 0 l0 -0.7 c-0.46 0.48 -1.28 0.84 -2.2 0.84 c-2.7 0 -3.74 -1.2 -3.74 -3.04 c0 -2.08 1.68 -3.48 4.4 -3.48 l1.54 0 c0 -0.74 -0.56 -1.22 -1.4 -1.22 c-0.86 0 -1.28 0.16 -1.72 0.64 z M97.88479166666663 16.740000000000002 l0 -0.88 l-1.74 0 c-0.78 0 -1.36 0.54 -1.24 1.3 c0.08 0.54 0.56 0.76 1.24 0.76 c1.3 0 1.74 -0.74 1.74 -1.18 z M111.79249999999996 14.36 l0 5.64 l-2.96 0 l0 -5.64 c0 -1.5 -0.4 -2.16 -1.56 -2.16 c-1.2 0 -1.9 0.66 -1.9 2.16 l0 5.64 l-2.96 0 l0 -9.88 l2.96 0 l0 0.94 c0.76 -0.74 1.8 -1.08 2.66 -1.08 c2.78 0 3.76 1.34 3.76 4.38 z M122.10791666666663 18.38 c0 1.02 -0.84 1.8 -1.9 1.8 s-1.88 -0.78 -1.88 -1.8 c0 -0.96 0.82 -1.76 1.88 -1.76 s1.9 0.8 1.9 1.76 z"></path></g></svg>